<svg id="visual" viewBox="0 0 4096 1080" width="4096" height="1080" xmlns="http://www.w3.org/2000/svg" xmlns:xlink="http://www.w3.org/1999/xlink" version="1.1"><rect x="0" y="0" width="4096" height="1080" fill="#001220"></rect><path d="M0 329L40.2 321.5C80.3 314 160.7 299 241 310.7C321.3 322.3 401.7 360.7 482 373.8C562.3 387 642.7 375 723 354.7C803.3 334.3 883.7 305.7 964 301.3C1044.3 297 1124.7 317 1205 341C1285.3 365 1365.7 393 1446 372.7C1526.3 352.3 1606.7 283.7 1687 247.2C1767.3 210.7 1847.7 206.3 1927.8 228.5C2008 250.7 2088 299.3 2168.2 322C2248.3 344.7 2328.7 341.3 2409 334.8C2489.3 328.3 2569.7 318.7 2650 295.3C2730.3 272 2810.7 235 2891 216.3C2971.3 197.7 3051.7 197.3 3132 199C3212.3 200.7 3292.7 204.3 3373 232.3C3453.3 260.3 3533.7 312.7 3614 318.2C3694.3 323.7 3774.7 282.3 3855 259C3935.3 235.7 4015.7 230.3 4055.8 227.7L4096 225L4096 1081L4055.8 1081C4015.7 1081 3935.3 1081 3855 1081C3774.7 1081 3694.3 1081 3614 1081C3533.7 1081 3453.3 1081 3373 1081C3292.7 1081 3212.3 1081 3132 1081C3051.7 1081 2971.3 1081 2891 1081C2810.7 1081 2730.3 1081 2650 1081C2569.7 1081 2489.3 1081 2409 1081C2328.7 1081 2248.3 1081 2168.2 1081C2088 1081 2008 1081 1927.8 1081C1847.7 1081 1767.3 1081 1687 1081C1606.7 1081 1526.3 1081 1446 1081C1365.7 1081 1285.3 1081 1205 1081C1124.7 1081 1044.3 1081 964 1081C883.7 1081 803.3 1081 723 1081C642.7 1081 562.3 1081 482 1081C401.7 1081 321.3 1081 241 1081C160.7 1081 80.3 1081 40.2 1081L0 1081Z" fill="#fa7268"></path><path d="M0 516L40.2 513.7C80.3 511.3 160.7 506.7 241 498C321.3 489.3 401.7 476.7 482 449.2C562.3 421.7 642.7 379.3 723 355C803.3 330.7 883.7 324.3 964 321.8C1044.3 319.3 1124.7 320.7 1205 336.5C1285.3 352.3 1365.7 382.7 1446 411.7C1526.3 440.7 1606.7 468.3 1687 471.5C1767.3 474.7 1847.7 453.3 1927.8 411.3C2008 369.3 2088 306.7 2168.2 311.7C2248.3 316.7 2328.7 389.3 2409 397.5C2489.3 405.7 2569.7 349.3 2650 333.7C2730.3 318 2810.7 343 2891 350C2971.3 357 3051.7 346 3132 345.7C3212.3 345.3 3292.7 355.7 3373 368C3453.3 380.3 3533.7 394.7 3614 401.5C3694.3 408.3 3774.7 407.7 3855 386.8C3935.3 366 4015.7 325 4055.8 304.5L4096 284L4096 1081L4055.8 1081C4015.7 1081 3935.3 1081 3855 1081C3774.7 1081 3694.3 1081 3614 1081C3533.7 1081 3453.3 1081 3373 1081C3292.7 1081 3212.3 1081 3132 1081C3051.7 1081 2971.3 1081 2891 1081C2810.7 1081 2730.3 1081 2650 1081C2569.7 1081 2489.3 1081 2409 1081C2328.7 1081 2248.3 1081 2168.2 1081C2088 1081 2008 1081 1927.8 1081C1847.7 1081 1767.3 1081 1687 1081C1606.7 1081 1526.3 1081 1446 1081C1365.7 1081 1285.3 1081 1205 1081C1124.7 1081 1044.3 1081 964 1081C883.7 1081 803.3 1081 723 1081C642.7 1081 562.3 1081 482 1081C401.7 1081 321.3 1081 241 1081C160.7 1081 80.3 1081 40.2 1081L0 1081Z" fill="#f66b68"></path><path d="M0 516L40.2 517C80.3 518 160.7 520 241 511.5C321.3 503 401.7 484 482 481.3C562.3 478.7 642.7 492.3 723 489.2C803.3 486 883.7 466 964 464.5C1044.3 463 1124.7 480 1205 467.2C1285.3 454.3 1365.7 411.7 1446 389.3C1526.3 367 1606.7 365 1687 371.3C1767.3 377.7 1847.7 392.3 1927.8 419.2C2008 446 2088 485 2168.2 493C2248.3 501 2328.7 478 2409 443.5C2489.3 409 2569.7 363 2650 342.5C2730.3 322 2810.7 327 2891 351.2C2971.3 375.3 3051.7 418.7 3132 415.3C3212.3 412 3292.7 362 3373 362.7C3453.3 363.3 3533.7 414.7 3614 452.2C3694.3 489.7 3774.7 513.3 3855 503.2C3935.3 493 4015.7 449 4055.8 427L4096 405L4096 1081L4055.8 1081C4015.7 1081 3935.3 1081 3855 1081C3774.7 1081 3694.3 1081 3614 1081C3533.7 1081 3453.3 1081 3373 1081C3292.7 1081 3212.3 1081 3132 1081C3051.7 1081 2971.3 1081 2891 1081C2810.7 1081 2730.3 1081 2650 1081C2569.7 1081 2489.3 1081 2409 1081C2328.7 1081 2248.3 1081 2168.2 1081C2088 1081 2008 1081 1927.8 1081C1847.7 1081 1767.3 1081 1687 1081C1606.7 1081 1526.3 1081 1446 1081C1365.7 1081 1285.3 1081 1205 1081C1124.7 1081 1044.3 1081 964 1081C883.7 1081 803.3 1081 723 1081C642.7 1081 562.3 1081 482 1081C401.7 1081 321.3 1081 241 1081C160.7 1081 80.3 1081 40.2 1081L0 1081Z" fill="#f26467"></path><path d="M0 412L40.2 421C80.3 430 160.7 448 241 451C321.3 454 401.7 442 482 440.5C562.3 439 642.7 448 723 442.5C803.3 437 883.7 417 964 423C1044.3 429 1124.7 461 1205 472C1285.3 483 1365.7 473 1446 463.7C1526.3 454.3 1606.7 445.7 1687 437.7C1767.3 429.7 1847.7 422.3 1927.8 432.8C2008 443.3 2088 471.7 2168.2 499.8C2248.3 528 2328.7 556 2409 556.8C2489.3 557.7 2569.7 531.3 2650 500.8C2730.3 470.3 2810.7 435.7 2891 429.2C2971.3 422.7 3051.7 444.3 3132 452.7C3212.3 461 3292.7 456 3373 445.7C3453.3 435.3 3533.7 419.7 3614 439C3694.3 458.3 3774.7 512.7 3855 519.3C3935.3 526 4015.7 485 4055.8 464.5L4096 444L4096 1081L4055.8 1081C4015.7 1081 3935.3 1081 3855 1081C3774.7 1081 3694.3 1081 3614 1081C3533.7 1081 3453.3 1081 3373 1081C3292.7 1081 3212.3 1081 3132 1081C3051.7 1081 2971.3 1081 2891 1081C2810.7 1081 2730.3 1081 2650 1081C2569.7 1081 2489.3 1081 2409 1081C2328.7 1081 2248.3 1081 2168.2 1081C2088 1081 2008 1081 1927.8 1081C1847.7 1081 1767.3 1081 1687 1081C1606.7 1081 1526.3 1081 1446 1081C1365.7 1081 1285.3 1081 1205 1081C1124.7 1081 1044.3 1081 964 1081C883.7 1081 803.3 1081 723 1081C642.7 1081 562.3 1081 482 1081C401.7 1081 321.3 1081 241 1081C160.7 1081 80.3 1081 40.2 1081L0 1081Z" fill="#ee5d67"></path><path d="M0 665L40.2 635.3C80.3 605.7 160.7 546.3 241 543.2C321.3 540 401.7 593 482 611C562.3 629 642.7 612 723 599.8C803.3 587.7 883.7 580.3 964 555.7C1044.3 531 1124.7 489 1205 498.8C1285.3 508.7 1365.7 570.3 1446 587.8C1526.3 605.3 1606.7 578.7 1687 584.3C1767.3 590 1847.7 628 1927.8 620.8C2008 613.7 2088 561.3 2168.2 529.5C2248.3 497.7 2328.7 486.3 2409 508.2C2489.3 530 2569.7 585 2650 607.5C2730.3 630 2810.7 620 2891 610.8C2971.3 601.7 3051.7 593.3 3132 598.3C3212.3 603.3 3292.7 621.7 3373 602.3C3453.3 583 3533.7 526 3614 513.5C3694.3 501 3774.7 533 3855 557.2C3935.3 581.3 4015.7 597.7 4055.8 605.8L4096 614L4096 1081L4055.8 1081C4015.7 1081 3935.3 1081 3855 1081C3774.7 1081 3694.3 1081 3614 1081C3533.7 1081 3453.3 1081 3373 1081C3292.7 1081 3212.3 1081 3132 1081C3051.7 1081 2971.3 1081 2891 1081C2810.7 1081 2730.3 1081 2650 1081C2569.7 1081 2489.3 1081 2409 1081C2328.7 1081 2248.3 1081 2168.2 1081C2088 1081 2008 1081 1927.8 1081C1847.7 1081 1767.3 1081 1687 1081C1606.7 1081 1526.3 1081 1446 1081C1365.7 1081 1285.3 1081 1205 1081C1124.7 1081 1044.3 1081 964 1081C883.7 1081 803.3 1081 723 1081C642.7 1081 562.3 1081 482 1081C401.7 1081 321.3 1081 241 1081C160.7 1081 80.3 1081 40.2 1081L0 1081Z" fill="#ea5667"></path><path d="M0 648L40.2 644.7C80.3 641.3 160.7 634.7 241 633.8C321.3 633 401.7 638 482 635.5C562.3 633 642.7 623 723 621.5C803.3 620 883.7 627 964 644.3C1044.3 661.7 1124.7 689.3 1205 681.7C1285.3 674 1365.7 631 1446 624C1526.3 617 1606.7 646 1687 653.8C1767.3 661.7 1847.7 648.3 1927.8 654.3C2008 660.3 2088 685.7 2168.2 669.3C2248.3 653 2328.7 595 2409 564.2C2489.3 533.3 2569.7 529.7 2650 559.5C2730.3 589.3 2810.7 652.7 2891 663.7C2971.3 674.7 3051.7 633.3 3132 602.2C3212.3 571 3292.7 550 3373 561.7C3453.3 573.3 3533.7 617.7 3614 628.5C3694.3 639.3 3774.7 616.7 3855 614C3935.3 611.3 4015.7 628.7 4055.8 637.3L4096 646L4096 1081L4055.8 1081C4015.7 1081 3935.3 1081 3855 1081C3774.7 1081 3694.3 1081 3614 1081C3533.7 1081 3453.3 1081 3373 1081C3292.7 1081 3212.3 1081 3132 1081C3051.7 1081 2971.3 1081 2891 1081C2810.7 1081 2730.3 1081 2650 1081C2569.7 1081 2489.3 1081 2409 1081C2328.7 1081 2248.3 1081 2168.2 1081C2088 1081 2008 1081 1927.8 1081C1847.7 1081 1767.3 1081 1687 1081C1606.7 1081 1526.3 1081 1446 1081C1365.7 1081 1285.3 1081 1205 1081C1124.7 1081 1044.3 1081 964 1081C883.7 1081 803.3 1081 723 1081C642.7 1081 562.3 1081 482 1081C401.7 1081 321.3 1081 241 1081C160.7 1081 80.3 1081 40.2 1081L0 1081Z" fill="#e54f67"></path><path d="M0 771L40.2 750.8C80.3 730.7 160.7 690.3 241 663.2C321.3 636 401.7 622 482 617.2C562.3 612.3 642.7 616.7 723 618.2C803.3 619.7 883.7 618.3 964 632.3C1044.3 646.3 1124.7 675.7 1205 696.2C1285.3 716.7 1365.7 728.3 1446 714.7C1526.3 701 1606.7 662 1687 641.8C1767.3 621.7 1847.7 620.3 1927.8 637.8C2008 655.3 2088 691.7 2168.2 710.2C2248.3 728.7 2328.7 729.3 2409 735.8C2489.3 742.3 2569.7 754.7 2650 739.5C2730.3 724.3 2810.7 681.7 2891 681.3C2971.3 681 3051.7 723 3132 727.7C3212.3 732.3 3292.7 699.7 3373 673.8C3453.3 648 3533.7 629 3614 630C3694.3 631 3774.7 652 3855 671.5C3935.3 691 4015.7 709 4055.8 718L4096 727L4096 1081L4055.8 1081C4015.7 1081 3935.3 1081 3855 1081C3774.7 1081 3694.3 1081 3614 1081C3533.7 1081 3453.3 1081 3373 1081C3292.7 1081 3212.3 1081 3132 1081C3051.7 1081 2971.3 1081 2891 1081C2810.7 1081 2730.3 1081 2650 1081C2569.7 1081 2489.3 1081 2409 1081C2328.7 1081 2248.3 1081 2168.2 1081C2088 1081 2008 1081 1927.8 1081C1847.7 1081 1767.3 1081 1687 1081C1606.7 1081 1526.3 1081 1446 1081C1365.7 1081 1285.3 1081 1205 1081C1124.7 1081 1044.3 1081 964 1081C883.7 1081 803.3 1081 723 1081C642.7 1081 562.3 1081 482 1081C401.7 1081 321.3 1081 241 1081C160.7 1081 80.3 1081 40.2 1081L0 1081Z" fill="#e14867"></path><path d="M0 745L40.2 756.2C80.3 767.3 160.7 789.7 241 791C321.3 792.3 401.7 772.7 482 757.2C562.3 741.7 642.7 730.3 723 731.7C803.3 733 883.7 747 964 759.7C1044.3 772.3 1124.7 783.7 1205 791.7C1285.3 799.7 1365.7 804.3 1446 791.8C1526.3 779.3 1606.7 749.7 1687 735C1767.3 720.3 1847.7 720.7 1927.8 718.5C2008 716.3 2088 711.7 2168.2 704C2248.3 696.3 2328.7 685.7 2409 703.5C2489.3 721.3 2569.7 767.7 2650 789.2C2730.3 810.7 2810.7 807.3 2891 809.8C2971.3 812.3 3051.7 820.7 3132 813.8C3212.3 807 3292.7 785 3373 779.8C3453.3 774.7 3533.7 786.3 3614 776C3694.3 765.7 3774.7 733.3 3855 728C3935.3 722.7 4015.7 744.3 4055.8 755.2L4096 766L4096 1081L4055.8 1081C4015.7 1081 3935.3 1081 3855 1081C3774.7 1081 3694.3 1081 3614 1081C3533.7 1081 3453.3 1081 3373 1081C3292.7 1081 3212.3 1081 3132 1081C3051.7 1081 2971.3 1081 2891 1081C2810.7 1081 2730.3 1081 2650 1081C2569.7 1081 2489.3 1081 2409 1081C2328.7 1081 2248.3 1081 2168.2 1081C2088 1081 2008 1081 1927.8 1081C1847.7 1081 1767.3 1081 1687 1081C1606.7 1081 1526.3 1081 1446 1081C1365.7 1081 1285.3 1081 1205 1081C1124.7 1081 1044.3 1081 964 1081C883.7 1081 803.3 1081 723 1081C642.7 1081 562.3 1081 482 1081C401.7 1081 321.3 1081 241 1081C160.7 1081 80.3 1081 40.2 1081L0 1081Z" fill="#dc4167"></path><path d="M0 855L40.2 836.3C80.3 817.7 160.7 780.3 241 767.5C321.3 754.7 401.7 766.3 482 788.3C562.3 810.3 642.7 842.7 723 847.3C803.3 852 883.7 829 964 807.7C1044.3 786.3 1124.7 766.7 1205 766.8C1285.3 767 1365.7 787 1446 788.2C1526.3 789.3 1606.7 771.7 1687 782.3C1767.3 793 1847.7 832 1927.8 839.5C2008 847 2088 823 2168.2 822.3C2248.3 821.7 2328.7 844.3 2409 854.2C2489.3 864 2569.7 861 2650 861.8C2730.3 862.7 2810.7 867.3 2891 866.3C2971.3 865.3 3051.7 858.7 3132 845.8C3212.3 833 3292.7 814 3373 816.7C3453.3 819.3 3533.7 843.7 3614 849.2C3694.3 854.7 3774.7 841.3 3855 836C3935.3 830.7 4015.7 833.3 4055.8 834.7L4096 836L4096 1081L4055.8 1081C4015.7 1081 3935.3 1081 3855 1081C3774.7 1081 3694.3 1081 3614 1081C3533.7 1081 3453.3 1081 3373 1081C3292.7 1081 3212.3 1081 3132 1081C3051.7 1081 2971.3 1081 2891 1081C2810.7 1081 2730.3 1081 2650 1081C2569.7 1081 2489.3 1081 2409 1081C2328.7 1081 2248.3 1081 2168.2 1081C2088 1081 2008 1081 1927.8 1081C1847.7 1081 1767.3 1081 1687 1081C1606.7 1081 1526.3 1081 1446 1081C1365.7 1081 1285.3 1081 1205 1081C1124.7 1081 1044.3 1081 964 1081C883.7 1081 803.3 1081 723 1081C642.7 1081 562.3 1081 482 1081C401.7 1081 321.3 1081 241 1081C160.7 1081 80.3 1081 40.2 1081L0 1081Z" fill="#d73a67"></path><path d="M0 855L40.2 849.8C80.3 844.7 160.7 834.3 241 831C321.3 827.7 401.7 831.3 482 838.7C562.3 846 642.7 857 723 863C803.3 869 883.7 870 964 863.2C1044.3 856.3 1124.7 841.7 1205 839.5C1285.3 837.3 1365.7 847.7 1446 858.5C1526.3 869.3 1606.7 880.7 1687 891.7C1767.3 902.7 1847.7 913.3 1927.8 910.7C2008 908 2088 892 2168.2 879.8C2248.3 867.7 2328.7 859.3 2409 850.8C2489.3 842.3 2569.7 833.7 2650 844.2C2730.3 854.7 2810.7 884.3 2891 895.2C2971.3 906 3051.7 898 3132 896C3212.3 894 3292.7 898 3373 887.2C3453.3 876.3 3533.7 850.7 3614 851.8C3694.3 853 3774.7 881 3855 897C3935.3 913 4015.7 917 4055.8 919L4096 921L4096 1081L4055.8 1081C4015.7 1081 3935.3 1081 3855 1081C3774.7 1081 3694.3 1081 3614 1081C3533.7 1081 3453.3 1081 3373 1081C3292.7 1081 3212.3 1081 3132 1081C3051.7 1081 2971.3 1081 2891 1081C2810.7 1081 2730.3 1081 2650 1081C2569.7 1081 2489.3 1081 2409 1081C2328.7 1081 2248.3 1081 2168.2 1081C2088 1081 2008 1081 1927.8 1081C1847.7 1081 1767.3 1081 1687 1081C1606.7 1081 1526.3 1081 1446 1081C1365.7 1081 1285.3 1081 1205 1081C1124.7 1081 1044.3 1081 964 1081C883.7 1081 803.3 1081 723 1081C642.7 1081 562.3 1081 482 1081C401.7 1081 321.3 1081 241 1081C160.7 1081 80.3 1081 40.2 1081L0 1081Z" fill="#d13367"></path><path d="M0 926L40.2 931C80.3 936 160.7 946 241 941.2C321.3 936.3 401.7 916.7 482 921.3C562.3 926 642.7 955 723 961C803.3 967 883.7 950 964 940.7C1044.3 931.3 1124.7 929.7 1205 922.8C1285.3 916 1365.7 904 1446 902.3C1526.3 900.7 1606.7 909.3 1687 908.7C1767.3 908 1847.7 898 1927.8 905.3C2008 912.7 2088 937.3 2168.2 949C2248.3 960.7 2328.7 959.3 2409 956.3C2489.3 953.3 2569.7 948.7 2650 939.8C2730.3 931 2810.7 918 2891 915.8C2971.3 913.7 3051.7 922.3 3132 932.8C3212.3 943.3 3292.7 955.7 3373 964.2C3453.3 972.7 3533.7 977.3 3614 971.8C3694.3 966.3 3774.7 950.7 3855 940.7C3935.3 930.7 4015.7 926.3 4055.8 924.2L4096 922L4096 1081L4055.8 1081C4015.7 1081 3935.3 1081 3855 1081C3774.7 1081 3694.3 1081 3614 1081C3533.7 1081 3453.3 1081 3373 1081C3292.7 1081 3212.3 1081 3132 1081C3051.7 1081 2971.3 1081 2891 1081C2810.7 1081 2730.3 1081 2650 1081C2569.7 1081 2489.3 1081 2409 1081C2328.7 1081 2248.3 1081 2168.2 1081C2088 1081 2008 1081 1927.8 1081C1847.7 1081 1767.3 1081 1687 1081C1606.7 1081 1526.3 1081 1446 1081C1365.7 1081 1285.3 1081 1205 1081C1124.7 1081 1044.3 1081 964 1081C883.7 1081 803.3 1081 723 1081C642.7 1081 562.3 1081 482 1081C401.7 1081 321.3 1081 241 1081C160.7 1081 80.3 1081 40.2 1081L0 1081Z" fill="#cc2b68"></path><path d="M0 999L40.2 992C80.3 985 160.7 971 241 969.5C321.3 968 401.7 979 482 992.2C562.3 1005.3 642.7 1020.7 723 1024.8C803.3 1029 883.7 1022 964 1021.5C1044.3 1021 1124.7 1027 1205 1030.5C1285.3 1034 1365.7 1035 1446 1027.5C1526.3 1020 1606.7 1004 1687 990.5C1767.3 977 1847.7 966 1927.8 973C2008 980 2088 1005 2168.2 1011.2C2248.3 1017.3 2328.7 1004.7 2409 995.8C2489.3 987 2569.7 982 2650 979.3C2730.3 976.7 2810.7 976.3 2891 979.5C2971.3 982.7 3051.7 989.3 3132 990.3C3212.3 991.3 3292.7 986.7 3373 983.2C3453.3 979.7 3533.7 977.3 3614 985.3C3694.3 993.3 3774.7 1011.7 3855 1010.3C3935.3 1009 4015.7 988 4055.8 977.5L4096 967L4096 1081L4055.8 1081C4015.7 1081 3935.3 1081 3855 1081C3774.7 1081 3694.3 1081 3614 1081C3533.7 1081 3453.3 1081 3373 1081C3292.7 1081 3212.3 1081 3132 1081C3051.7 1081 2971.3 1081 2891 1081C2810.7 1081 2730.3 1081 2650 1081C2569.7 1081 2489.3 1081 2409 1081C2328.7 1081 2248.3 1081 2168.2 1081C2088 1081 2008 1081 1927.8 1081C1847.7 1081 1767.3 1081 1687 1081C1606.7 1081 1526.3 1081 1446 1081C1365.7 1081 1285.3 1081 1205 1081C1124.7 1081 1044.3 1081 964 1081C883.7 1081 803.3 1081 723 1081C642.7 1081 562.3 1081 482 1081C401.7 1081 321.3 1081 241 1081C160.7 1081 80.3 1081 40.2 1081L0 1081Z" fill="#c62368"></path></svg>