<svg id="visual" viewBox="0 0 2048 768" width="2048" height="768" xmlns="http://www.w3.org/2000/svg" xmlns:xlink="http://www.w3.org/1999/xlink" version="1.1"><rect x="0" y="0" width="2048" height="768" fill="#131313"></rect><path d="M0 349L89 252L178 331L267 326L356 404L445 295L534 292L623 341L712 310L801 269L890 337L979 313L1069 352L1158 337L1247 409L1336 326L1425 275L1514 320L1603 435L1692 325L1781 389L1870 265L1959 358L2048 383L2048 769L1959 769L1870 769L1781 769L1692 769L1603 769L1514 769L1425 769L1336 769L1247 769L1158 769L1069 769L979 769L890 769L801 769L712 769L623 769L534 769L445 769L356 769L267 769L178 769L89 769L0 769Z" fill="#101010"></path><path d="M0 438L89 340L178 494L267 372L356 358L445 398L534 332L623 459L712 475L801 405L890 489L979 433L1069 359L1158 364L1247 380L1336 487L1425 386L1514 488L1603 357L1692 415L1781 332L1870 348L1959 456L2048 356L2048 769L1959 769L1870 769L1781 769L1692 769L1603 769L1514 769L1425 769L1336 769L1247 769L1158 769L1069 769L979 769L890 769L801 769L712 769L623 769L534 769L445 769L356 769L267 769L178 769L89 769L0 769Z" fill="#121212"></path><path d="M0 503L89 516L178 550L267 439L356 427L445 520L534 406L623 495L712 535L801 510L890 477L979 492L1069 462L1158 461L1247 420L1336 408L1425 482L1514 494L1603 503L1692 487L1781 439L1870 556L1959 551L2048 413L2048 769L1959 769L1870 769L1781 769L1692 769L1603 769L1514 769L1425 769L1336 769L1247 769L1158 769L1069 769L979 769L890 769L801 769L712 769L623 769L534 769L445 769L356 769L267 769L178 769L89 769L0 769Z" fill="#131313"></path><path d="M0 591L89 567L178 530L267 511L356 494L445 522L534 604L623 567L712 506L801 552L890 564L979 538L1069 543L1158 511L1247 492L1336 540L1425 601L1514 605L1603 562L1692 598L1781 534L1870 570L1959 562L2048 544L2048 769L1959 769L1870 769L1781 769L1692 769L1603 769L1514 769L1425 769L1336 769L1247 769L1158 769L1069 769L979 769L890 769L801 769L712 769L623 769L534 769L445 769L356 769L267 769L178 769L89 769L0 769Z" fill="#151515"></path><path d="M0 575L89 661L178 595L267 602L356 597L445 602L534 621L623 601L712 655L801 564L890 576L979 661L1069 566L1158 584L1247 657L1336 618L1425 646L1514 566L1603 640L1692 636L1781 651L1870 580L1959 644L2048 620L2048 769L1959 769L1870 769L1781 769L1692 769L1603 769L1514 769L1425 769L1336 769L1247 769L1158 769L1069 769L979 769L890 769L801 769L712 769L623 769L534 769L445 769L356 769L267 769L178 769L89 769L0 769Z" fill="#161616"></path><path d="M0 640L89 706L178 651L267 698L356 722L445 683L534 712L623 678L712 691L801 679L890 668L979 718L1069 692L1158 638L1247 700L1336 640L1425 653L1514 699L1603 684L1692 714L1781 652L1870 637L1959 679L2048 678L2048 769L1959 769L1870 769L1781 769L1692 769L1603 769L1514 769L1425 769L1336 769L1247 769L1158 769L1069 769L979 769L890 769L801 769L712 769L623 769L534 769L445 769L356 769L267 769L178 769L89 769L0 769Z" fill="#171717"></path></svg>