<svg id="visual" viewBox="0 0 2048 768" width="2048" height="768" xmlns="http://www.w3.org/2000/svg" xmlns:xlink="http://www.w3.org/1999/xlink" version="1.1"><rect x="0" y="0" width="2048" height="768" fill="#131313"></rect><path d="M0 363L89 292L178 346L267 378L356 403L445 377L534 364L623 265L712 331L801 282L890 334L979 285L1069 413L1158 366L1247 312L1336 281L1425 280L1514 271L1603 247L1692 307L1781 375L1870 278L1959 361L2048 355L2048 769L1959 769L1870 769L1781 769L1692 769L1603 769L1514 769L1425 769L1336 769L1247 769L1158 769L1069 769L979 769L890 769L801 769L712 769L623 769L534 769L445 769L356 769L267 769L178 769L89 769L0 769Z" fill="#101010"></path><path d="M0 344L89 379L178 354L267 435L356 451L445 393L534 412L623 427L712 399L801 405L890 324L979 439L1069 385L1158 472L1247 320L1336 398L1425 476L1514 386L1603 420L1692 350L1781 361L1870 387L1959 411L2048 391L2048 769L1959 769L1870 769L1781 769L1692 769L1603 769L1514 769L1425 769L1336 769L1247 769L1158 769L1069 769L979 769L890 769L801 769L712 769L623 769L534 769L445 769L356 769L267 769L178 769L89 769L0 769Z" fill="#121212"></path><path d="M0 445L89 530L178 406L267 492L356 498L445 413L534 435L623 489L712 469L801 462L890 441L979 504L1069 533L1158 410L1247 476L1336 515L1425 513L1514 419L1603 409L1692 502L1781 504L1870 428L1959 400L2048 427L2048 769L1959 769L1870 769L1781 769L1692 769L1603 769L1514 769L1425 769L1336 769L1247 769L1158 769L1069 769L979 769L890 769L801 769L712 769L623 769L534 769L445 769L356 769L267 769L178 769L89 769L0 769Z" fill="#131313"></path><path d="M0 536L89 503L178 585L267 499L356 497L445 531L534 553L623 585L712 521L801 586L890 517L979 513L1069 547L1158 528L1247 565L1336 556L1425 490L1514 483L1603 543L1692 489L1781 503L1870 555L1959 536L2048 528L2048 769L1959 769L1870 769L1781 769L1692 769L1603 769L1514 769L1425 769L1336 769L1247 769L1158 769L1069 769L979 769L890 769L801 769L712 769L623 769L534 769L445 769L356 769L267 769L178 769L89 769L0 769Z" fill="#151515"></path><path d="M0 636L89 572L178 615L267 594L356 628L445 612L534 585L623 615L712 559L801 562L890 595L979 646L1069 566L1158 623L1247 640L1336 640L1425 657L1514 582L1603 605L1692 616L1781 609L1870 569L1959 618L2048 650L2048 769L1959 769L1870 769L1781 769L1692 769L1603 769L1514 769L1425 769L1336 769L1247 769L1158 769L1069 769L979 769L890 769L801 769L712 769L623 769L534 769L445 769L356 769L267 769L178 769L89 769L0 769Z" fill="#161616"></path><path d="M0 645L89 653L178 645L267 687L356 649L445 650L534 654L623 685L712 669L801 720L890 650L979 653L1069 639L1158 717L1247 703L1336 644L1425 706L1514 698L1603 649L1692 693L1781 705L1870 660L1959 679L2048 674L2048 769L1959 769L1870 769L1781 769L1692 769L1603 769L1514 769L1425 769L1336 769L1247 769L1158 769L1069 769L979 769L890 769L801 769L712 769L623 769L534 769L445 769L356 769L267 769L178 769L89 769L0 769Z" fill="#171717"></path></svg>