<svg id="visual" viewBox="0 0 4096 1080" width="4096" height="1080" xmlns="http://www.w3.org/2000/svg" xmlns:xlink="http://www.w3.org/1999/xlink" version="1.1"><g stroke-width="3" stroke-linejoin="bevel"><path d="M2059 559L2209.8 760L2186.8 551Z" fill="#101012" stroke="#101012"></path><path d="M2059 559L1995 722L2209.8 760Z" fill="#131316" stroke="#101012"></path><path d="M2051 836L2185.8 843L2209.8 760Z" fill="#111114" stroke="#101012"></path><path d="M1995 722L2051 836L2209.8 760Z" fill="#16161a" stroke="#101012"></path><path d="M1793.2 543L1906.2 758L1995 722Z" fill="#101012" stroke="#101012"></path><path d="M1995 722L1906.2 758L2051 836Z" fill="#121214" stroke="#101012"></path><path d="M2431.6 671L2398.6 606L2209.8 760Z" fill="#151518" stroke="#101012"></path><path d="M2209.8 760L2398.6 606L2186.8 551Z" fill="#111113" stroke="#101012"></path><path d="M2459.6 909L2431.6 671L2209.8 760Z" fill="#151519" stroke="#101012"></path><path d="M1906.2 758L1872.2 847L2051 836Z" fill="#111113" stroke="#101012"></path><path d="M2406.6 1080L2459.6 909L2185.8 843Z" fill="#16161a" stroke="#101012"></path><path d="M2398.6 606L2281.8 373L2186.8 551Z" fill="#131316" stroke="#101012"></path><path d="M2186.8 551L2116 320L2059 559Z" fill="#141417" stroke="#101012"></path><path d="M2451.6 379L2281.8 373L2398.6 606Z" fill="#121215" stroke="#101012"></path><path d="M2281.8 373L2116 320L2186.8 551Z" fill="#131316" stroke="#101012"></path><path d="M2059 559L1793.2 543L1995 722Z" fill="#101012" stroke="#101012"></path><path d="M1819.2 393L1793.2 543L2059 559Z" fill="#16161a" stroke="#101012"></path><path d="M1906.2 758L1685.4 840L1872.2 847Z" fill="#131316" stroke="#101012"></path><path d="M2116 320L1819.2 393L2059 559Z" fill="#111113" stroke="#101012"></path><path d="M2094 1080L2185.8 843L2051 836Z" fill="#121214" stroke="#101012"></path><path d="M2185.8 843L2459.6 909L2209.8 760Z" fill="#121214" stroke="#101012"></path><path d="M1853.2 1080L2094 1080L2051 836Z" fill="#151518" stroke="#101012"></path><path d="M2094 1080L2196.8 1080L2185.8 843Z" fill="#151518" stroke="#101012"></path><path d="M2606.4 611L2451.6 379L2398.6 606Z" fill="#141418" stroke="#101012"></path><path d="M2281.8 373L2318.8 120L2116 320Z" fill="#151519" stroke="#101012"></path><path d="M2606.4 611L2398.6 606L2431.6 671Z" fill="#111114" stroke="#101012"></path><path d="M1597.4 535L1654.4 675L1793.2 543Z" fill="#141417" stroke="#101012"></path><path d="M1793.2 543L1654.4 675L1906.2 758Z" fill="#151519" stroke="#101012"></path><path d="M1872.2 847L1853.2 1080L2051 836Z" fill="#121214" stroke="#101012"></path><path d="M1654.4 675L1685.4 840L1906.2 758Z" fill="#131316" stroke="#101012"></path><path d="M2667.4 702L2606.4 611L2431.6 671Z" fill="#16161a" stroke="#101012"></path><path d="M1685.4 840L1853.2 1080L1872.2 847Z" fill="#121215" stroke="#101012"></path><path d="M2196.8 1080L2406.6 1080L2185.8 843Z" fill="#16161a" stroke="#101012"></path><path d="M2645.4 877L2667.4 702L2431.6 671Z" fill="#111114" stroke="#101012"></path><path d="M2610.4 288L2468.6 249L2451.6 379Z" fill="#151519" stroke="#101012"></path><path d="M2451.6 379L2468.6 249L2281.8 373Z" fill="#101012" stroke="#101012"></path><path d="M2645.4 877L2431.6 671L2459.6 909Z" fill="#101012" stroke="#101012"></path><path d="M2606.4 611L2610.4 288L2451.6 379Z" fill="#131316" stroke="#101012"></path><path d="M1819.2 393L1597.4 535L1793.2 543Z" fill="#16161a" stroke="#101012"></path><path d="M1654.4 675L1373.6 672L1685.4 840Z" fill="#121215" stroke="#101012"></path><path d="M2637.4 1080L2645.4 877L2459.6 909Z" fill="#16161a" stroke="#101012"></path><path d="M2318.8 120L1993 108L2116 320Z" fill="#111114" stroke="#101012"></path><path d="M2116 320L1993 108L1819.2 393Z" fill="#151518" stroke="#101012"></path><path d="M1819.2 393L1579.4 335L1597.4 535Z" fill="#111114" stroke="#101012"></path><path d="M2468.6 249L2318.8 120L2281.8 373Z" fill="#121215" stroke="#101012"></path><path d="M1993 108L1821.2 155L1819.2 393Z" fill="#121215" stroke="#101012"></path><path d="M2858.2 427L2610.4 288L2606.4 611Z" fill="#121214" stroke="#101012"></path><path d="M2468.6 249L2473.6 0L2318.8 120Z" fill="#141417" stroke="#101012"></path><path d="M1685.4 195L1579.4 335L1819.2 393Z" fill="#16161a" stroke="#101012"></path><path d="M1821.2 155L1685.4 195L1819.2 393Z" fill="#141417" stroke="#101012"></path><path d="M2406.6 1080L2637.4 1080L2459.6 909Z" fill="#121214" stroke="#101012"></path><path d="M2867.2 930L2859.2 651L2667.4 702Z" fill="#16161a" stroke="#101012"></path><path d="M2473.6 0L2218.8 0L2318.8 120Z" fill="#141417" stroke="#101012"></path><path d="M2318.8 120L2218.8 0L1993 108Z" fill="#111113" stroke="#101012"></path><path d="M1993 108L1911.2 0L1821.2 155Z" fill="#16161a" stroke="#101012"></path><path d="M1821.2 155L1577.4 0L1685.4 195Z" fill="#101012" stroke="#101012"></path><path d="M1579.4 335L1478.6 500L1597.4 535Z" fill="#16161a" stroke="#101012"></path><path d="M1597.4 535L1373.6 672L1654.4 675Z" fill="#101012" stroke="#101012"></path><path d="M2218.8 0L2003 0L1993 108Z" fill="#131316" stroke="#101012"></path><path d="M1685.4 840L1574.4 1080L1853.2 1080Z" fill="#151518" stroke="#101012"></path><path d="M1433.6 961L1574.4 1080L1685.4 840Z" fill="#111113" stroke="#101012"></path><path d="M2003 0L1911.2 0L1993 108Z" fill="#121214" stroke="#101012"></path><path d="M2922.2 185L2622.4 140L2610.4 288Z" fill="#151519" stroke="#101012"></path><path d="M2610.4 288L2622.4 140L2468.6 249Z" fill="#151519" stroke="#101012"></path><path d="M2867.2 930L2667.4 702L2645.4 877Z" fill="#111114" stroke="#101012"></path><path d="M2667.4 702L2859.2 651L2606.4 611Z" fill="#151519" stroke="#101012"></path><path d="M2622.4 140L2473.6 0L2468.6 249Z" fill="#111113" stroke="#101012"></path><path d="M1478.6 500L1373.6 672L1597.4 535Z" fill="#101012" stroke="#101012"></path><path d="M1373.6 672L1433.6 961L1685.4 840Z" fill="#111114" stroke="#101012"></path><path d="M2894.2 566L2858.2 427L2606.4 611Z" fill="#151519" stroke="#101012"></path><path d="M2859.2 651L2894.2 566L2606.4 611Z" fill="#121214" stroke="#101012"></path><path d="M2637.4 1080L2867.2 930L2645.4 877Z" fill="#111114" stroke="#101012"></path><path d="M3119 763L3064 484L2894.2 566Z" fill="#151518" stroke="#101012"></path><path d="M1685.4 195L1460.6 229L1579.4 335Z" fill="#16161a" stroke="#101012"></path><path d="M1579.4 335L1360.6 319L1478.6 500Z" fill="#111114" stroke="#101012"></path><path d="M1478.6 500L1269.8 538L1373.6 672Z" fill="#151519" stroke="#101012"></path><path d="M1577.4 0L1460.6 229L1685.4 195Z" fill="#141417" stroke="#101012"></path><path d="M1433.6 961L1440.6 1080L1574.4 1080Z" fill="#141418" stroke="#101012"></path><path d="M1181.8 1080L1440.6 1080L1433.6 961Z" fill="#111114" stroke="#101012"></path><path d="M2939.2 0L2616.4 0L2622.4 140Z" fill="#101012" stroke="#101012"></path><path d="M2622.4 140L2616.4 0L2473.6 0Z" fill="#141417" stroke="#101012"></path><path d="M2637.4 1080L2844.2 1080L2867.2 930Z" fill="#141417" stroke="#101012"></path><path d="M1460.6 229L1360.6 319L1579.4 335Z" fill="#121215" stroke="#101012"></path><path d="M1911.2 0L1577.4 0L1821.2 155Z" fill="#141418" stroke="#101012"></path><path d="M1460.6 229L1300.8 252L1360.6 319Z" fill="#111113" stroke="#101012"></path><path d="M1360.6 319L1269.8 538L1478.6 500Z" fill="#121214" stroke="#101012"></path><path d="M1373.6 672L1177.8 929L1433.6 961Z" fill="#121214" stroke="#101012"></path><path d="M1381.6 0L1300.8 252L1460.6 229Z" fill="#151518" stroke="#101012"></path><path d="M1360.6 319L1244.8 300L1269.8 538Z" fill="#131316" stroke="#101012"></path><path d="M3094 316L2922.2 185L2858.2 427Z" fill="#16161a" stroke="#101012"></path><path d="M2858.2 427L2922.2 185L2610.4 288Z" fill="#16161a" stroke="#101012"></path><path d="M2894.2 566L3064 484L2858.2 427Z" fill="#101012" stroke="#101012"></path><path d="M3119 763L2894.2 566L2859.2 651Z" fill="#16161a" stroke="#101012"></path><path d="M3119 763L2859.2 651L2867.2 930Z" fill="#131316" stroke="#101012"></path><path d="M1300.8 252L1244.8 300L1360.6 319Z" fill="#111114" stroke="#101012"></path><path d="M1033 225L1244.8 300L1300.8 252Z" fill="#121214" stroke="#101012"></path><path d="M1095 720L1169.8 743L1269.8 538Z" fill="#141418" stroke="#101012"></path><path d="M1269.8 538L1169.8 743L1373.6 672Z" fill="#141418" stroke="#101012"></path><path d="M2844.2 1080L3060 951L2867.2 930Z" fill="#101012" stroke="#101012"></path><path d="M1169.8 743L1177.8 929L1373.6 672Z" fill="#141417" stroke="#101012"></path><path d="M3060 951L3119 763L2867.2 930Z" fill="#111114" stroke="#101012"></path><path d="M1577.4 0L1381.6 0L1460.6 229Z" fill="#101012" stroke="#101012"></path><path d="M3232.8 334L3094 316L3064 484Z" fill="#16161a" stroke="#101012"></path><path d="M3064 484L3094 316L2858.2 427Z" fill="#151518" stroke="#101012"></path><path d="M1005 1080L1181.8 1080L1177.8 929Z" fill="#131316" stroke="#101012"></path><path d="M1177.8 929L1181.8 1080L1433.6 961Z" fill="#121215" stroke="#101012"></path><path d="M1016 567L1095 720L1269.8 538Z" fill="#111114" stroke="#101012"></path><path d="M1169.8 743L1095 720L1177.8 929Z" fill="#141418" stroke="#101012"></path><path d="M3099 232L2939.2 0L2922.2 185Z" fill="#111114" stroke="#101012"></path><path d="M2922.2 185L2939.2 0L2622.4 140Z" fill="#111114" stroke="#101012"></path><path d="M3232.8 334L3099 232L3094 316Z" fill="#151519" stroke="#101012"></path><path d="M3094 316L3099 232L2922.2 185Z" fill="#121215" stroke="#101012"></path><path d="M3240.8 916L3204.8 651L3119 763Z" fill="#16161a" stroke="#101012"></path><path d="M3119 763L3204.8 651L3064 484Z" fill="#121215" stroke="#101012"></path><path d="M2844.2 1080L3132 1080L3060 951Z" fill="#141418" stroke="#101012"></path><path d="M3060 951L3240.8 916L3119 763Z" fill="#101012" stroke="#101012"></path><path d="M1033 225L1047 402L1244.8 300Z" fill="#101012" stroke="#101012"></path><path d="M1244.8 300L1047 402L1269.8 538Z" fill="#16161a" stroke="#101012"></path><path d="M1047 402L1016 567L1269.8 538Z" fill="#151518" stroke="#101012"></path><path d="M1095 720L984 943L1177.8 929Z" fill="#111113" stroke="#101012"></path><path d="M1381.6 0L1226.8 0L1300.8 252Z" fill="#111114" stroke="#101012"></path><path d="M3132 1080L3240.8 916L3060 951Z" fill="#131316" stroke="#101012"></path><path d="M3521.6 764L3273.8 599L3204.8 651Z" fill="#121215" stroke="#101012"></path><path d="M3204.8 651L3273.8 599L3064 484Z" fill="#121215" stroke="#101012"></path><path d="M3273.8 599L3232.8 334L3064 484Z" fill="#101012" stroke="#101012"></path><path d="M3099 232L3143 0L2939.2 0Z" fill="#141417" stroke="#101012"></path><path d="M3132 1080L3221.8 1080L3240.8 916Z" fill="#16161a" stroke="#101012"></path><path d="M841.2 860L984 943L1095 720Z" fill="#111114" stroke="#101012"></path><path d="M1047 402L800.2 513L1016 567Z" fill="#121215" stroke="#101012"></path><path d="M791.2 775L841.2 860L1095 720Z" fill="#141417" stroke="#101012"></path><path d="M1226.8 0L1033 225L1300.8 252Z" fill="#141417" stroke="#101012"></path><path d="M984 943L1005 1080L1177.8 929Z" fill="#131316" stroke="#101012"></path><path d="M3223.8 107L3143 0L3099 232Z" fill="#101012" stroke="#101012"></path><path d="M3475.6 234L3223.8 107L3232.8 334Z" fill="#16161a" stroke="#101012"></path><path d="M3232.8 334L3223.8 107L3099 232Z" fill="#121215" stroke="#101012"></path><path d="M3514.6 0L3219.8 0L3223.8 107Z" fill="#151518" stroke="#101012"></path><path d="M3223.8 107L3219.8 0L3143 0Z" fill="#111114" stroke="#101012"></path><path d="M791.2 775L1095 720L1016 567Z" fill="#111114" stroke="#101012"></path><path d="M984 943L882.2 1080L1005 1080Z" fill="#141417" stroke="#101012"></path><path d="M841.2 860L882.2 1080L984 943Z" fill="#121214" stroke="#101012"></path><path d="M1226.8 0L990 0L1033 225Z" fill="#151519" stroke="#101012"></path><path d="M1033 225L821.2 367L1047 402Z" fill="#141418" stroke="#101012"></path><path d="M990 0L890.2 199L1033 225Z" fill="#121215" stroke="#101012"></path><path d="M821.2 367L800.2 513L1047 402Z" fill="#131316" stroke="#101012"></path><path d="M890.2 199L821.2 367L1033 225Z" fill="#111114" stroke="#101012"></path><path d="M800.2 513L791.2 775L1016 567Z" fill="#111113" stroke="#101012"></path><path d="M841.2 860L640.4 1080L882.2 1080Z" fill="#151518" stroke="#101012"></path><path d="M3221.8 1080L3452.6 945L3240.8 916Z" fill="#131316" stroke="#101012"></path><path d="M3240.8 916L3521.6 764L3204.8 651Z" fill="#101012" stroke="#101012"></path><path d="M3273.8 599L3512.6 306L3232.8 334Z" fill="#121214" stroke="#101012"></path><path d="M3521.6 764L3520.6 595L3273.8 599Z" fill="#141418" stroke="#101012"></path><path d="M3452.6 945L3521.6 764L3240.8 916Z" fill="#141417" stroke="#101012"></path><path d="M3512.6 306L3475.6 234L3232.8 334Z" fill="#111114" stroke="#101012"></path><path d="M3221.8 1080L3485.6 1080L3452.6 945Z" fill="#141418" stroke="#101012"></path><path d="M3736.4 842L3699.4 755L3521.6 764Z" fill="#111114" stroke="#101012"></path><path d="M3520.6 595L3512.6 306L3273.8 599Z" fill="#151519" stroke="#101012"></path><path d="M821.2 367L668.4 551L800.2 513Z" fill="#151518" stroke="#101012"></path><path d="M800.2 513L668.4 551L791.2 775Z" fill="#151519" stroke="#101012"></path><path d="M791.2 775L622.4 914L841.2 860Z" fill="#121214" stroke="#101012"></path><path d="M593.4 290L668.4 551L821.2 367Z" fill="#111113" stroke="#101012"></path><path d="M593.4 290L821.2 367L588.4 239Z" fill="#121215" stroke="#101012"></path><path d="M3699.4 755L3629.4 477L3520.6 595Z" fill="#16161a" stroke="#101012"></path><path d="M3520.6 595L3629.4 477L3512.6 306Z" fill="#101012" stroke="#101012"></path><path d="M3673.4 140L3514.6 0L3475.6 234Z" fill="#111114" stroke="#101012"></path><path d="M3699.4 755L3520.6 595L3521.6 764Z" fill="#151519" stroke="#101012"></path><path d="M990 0L761.2 0L890.2 199Z" fill="#111114" stroke="#101012"></path><path d="M553.4 772L622.4 914L791.2 775Z" fill="#111114" stroke="#101012"></path><path d="M3673.4 140L3475.6 234L3512.6 306Z" fill="#151518" stroke="#101012"></path><path d="M3475.6 234L3514.6 0L3223.8 107Z" fill="#141418" stroke="#101012"></path><path d="M622.4 914L640.4 1080L841.2 860Z" fill="#101012" stroke="#101012"></path><path d="M3629.4 477L3671.4 356L3512.6 306Z" fill="#16161a" stroke="#101012"></path><path d="M3929.2 518L3671.4 356L3629.4 477Z" fill="#151519" stroke="#101012"></path><path d="M3736.4 842L3521.6 764L3452.6 945Z" fill="#141417" stroke="#101012"></path><path d="M668.4 551L553.4 772L791.2 775Z" fill="#151518" stroke="#101012"></path><path d="M622.4 914L411.6 1080L640.4 1080Z" fill="#151519" stroke="#101012"></path><path d="M475.6 743L553.4 772L668.4 551Z" fill="#101012" stroke="#101012"></path><path d="M588.4 239L821.2 367L890.2 199Z" fill="#111114" stroke="#101012"></path><path d="M761.2 0L588.4 239L890.2 199Z" fill="#101012" stroke="#101012"></path><path d="M683.4 0L588.4 239L761.2 0Z" fill="#101012" stroke="#101012"></path><path d="M342.6 500L475.6 743L668.4 551Z" fill="#111114" stroke="#101012"></path><path d="M3696.4 1080L3736.4 842L3452.6 945Z" fill="#151519" stroke="#101012"></path><path d="M3699.4 755L3859.2 670L3629.4 477Z" fill="#141418" stroke="#101012"></path><path d="M3485.6 1080L3696.4 1080L3452.6 945Z" fill="#121215" stroke="#101012"></path><path d="M3911.2 314L3673.4 140L3671.4 356Z" fill="#141417" stroke="#101012"></path><path d="M3671.4 356L3673.4 140L3512.6 306Z" fill="#151518" stroke="#101012"></path><path d="M342.6 500L668.4 551L593.4 290Z" fill="#121214" stroke="#101012"></path><path d="M553.4 772L398.6 900L622.4 914Z" fill="#151518" stroke="#101012"></path><path d="M3910.2 141L3673.4 0L3673.4 140Z" fill="#121215" stroke="#101012"></path><path d="M3673.4 140L3673.4 0L3514.6 0Z" fill="#141417" stroke="#101012"></path><path d="M3943.2 911L3859.2 670L3736.4 842Z" fill="#141418" stroke="#101012"></path><path d="M3736.4 842L3859.2 670L3699.4 755Z" fill="#141418" stroke="#101012"></path><path d="M244.8 938L398.6 900L212.8 790Z" fill="#16161a" stroke="#101012"></path><path d="M475.6 743L398.6 900L553.4 772Z" fill="#121215" stroke="#101012"></path><path d="M374.6 0L428.6 246L588.4 239Z" fill="#141417" stroke="#101012"></path><path d="M588.4 239L428.6 246L593.4 290Z" fill="#111113" stroke="#101012"></path><path d="M398.6 900L411.6 1080L622.4 914Z" fill="#141417" stroke="#101012"></path><path d="M3696.4 1080L3860.2 1080L3736.4 842Z" fill="#121215" stroke="#101012"></path><path d="M336.6 339L342.6 500L593.4 290Z" fill="#141418" stroke="#101012"></path><path d="M398.6 900L244.8 938L411.6 1080Z" fill="#121214" stroke="#101012"></path><path d="M4096 677L3929.2 518L3859.2 670Z" fill="#121214" stroke="#101012"></path><path d="M3859.2 670L3929.2 518L3629.4 477Z" fill="#121214" stroke="#101012"></path><path d="M3929.2 518L3911.2 314L3671.4 356Z" fill="#111114" stroke="#101012"></path><path d="M428.6 246L336.6 339L593.4 290Z" fill="#131316" stroke="#101012"></path><path d="M3860.2 1080L3943.2 911L3736.4 842Z" fill="#151518" stroke="#101012"></path><path d="M3943.2 0L3910.2 141L4096 115Z" fill="#111113" stroke="#101012"></path><path d="M3911.2 314L3910.2 141L3673.4 140Z" fill="#151519" stroke="#101012"></path><path d="M683.4 0L374.6 0L588.4 239Z" fill="#131316" stroke="#101012"></path><path d="M428.6 246L273.8 176L336.6 339Z" fill="#111113" stroke="#101012"></path><path d="M186.8 574L342.6 500L194.8 321Z" fill="#141418" stroke="#101012"></path><path d="M212.8 790L475.6 743L342.6 500Z" fill="#16161a" stroke="#101012"></path><path d="M212.8 790L398.6 900L475.6 743Z" fill="#141418" stroke="#101012"></path><path d="M374.6 0L273.8 176L428.6 246Z" fill="#111113" stroke="#101012"></path><path d="M186.8 574L212.8 790L342.6 500Z" fill="#101012" stroke="#101012"></path><path d="M4096 115L3910.2 141L3911.2 314Z" fill="#16161a" stroke="#101012"></path><path d="M3910.2 141L3943.2 0L3673.4 0Z" fill="#101012" stroke="#101012"></path><path d="M4096 426L3911.2 314L3929.2 518Z" fill="#141417" stroke="#101012"></path><path d="M194.8 321L342.6 500L336.6 339Z" fill="#141417" stroke="#101012"></path><path d="M273.8 176L194.8 321L336.6 339Z" fill="#111114" stroke="#101012"></path><path d="M4096 926L4096 677L3943.2 911Z" fill="#121215" stroke="#101012"></path><path d="M3943.2 911L4096 677L3859.2 670Z" fill="#101012" stroke="#101012"></path><path d="M4096 677L4096 588L3929.2 518Z" fill="#121215" stroke="#101012"></path><path d="M4096 588L4096 426L3929.2 518Z" fill="#151519" stroke="#101012"></path><path d="M4096 1080L4096 926L3943.2 911Z" fill="#151518" stroke="#101012"></path><path d="M0 962L244.8 938L212.8 790Z" fill="#141417" stroke="#101012"></path><path d="M0 962L185.8 1080L244.8 938Z" fill="#121214" stroke="#101012"></path><path d="M244.8 938L185.8 1080L411.6 1080Z" fill="#151518" stroke="#101012"></path><path d="M3860.2 1080L4096 1080L3943.2 911Z" fill="#111114" stroke="#101012"></path><path d="M4096 426L4096 115L3911.2 314Z" fill="#111114" stroke="#101012"></path><path d="M0 529L0 654L186.8 574Z" fill="#151518" stroke="#101012"></path><path d="M186.8 574L0 654L212.8 790Z" fill="#111113" stroke="#101012"></path><path d="M273.8 176L0 191L194.8 321Z" fill="#151518" stroke="#101012"></path><path d="M374.6 0L183.8 0L273.8 176Z" fill="#151519" stroke="#101012"></path><path d="M4096 115L4096 0L3943.2 0Z" fill="#111113" stroke="#101012"></path><path d="M0 529L186.8 574L0 387Z" fill="#151519" stroke="#101012"></path><path d="M0 387L186.8 574L194.8 321Z" fill="#121215" stroke="#101012"></path><path d="M0 191L0 387L194.8 321Z" fill="#141418" stroke="#101012"></path><path d="M0 654L0 962L212.8 790Z" fill="#121214" stroke="#101012"></path><path d="M0 962L0 1080L185.8 1080Z" fill="#16161a" stroke="#101012"></path><path d="M183.8 0L0 191L273.8 176Z" fill="#121214" stroke="#101012"></path><path d="M183.8 0L0 0L0 191Z" fill="#111114" stroke="#101012"></path></g></svg>